<svg xmlns="http://www.w3.org/2000/svg" viewBox="0 0 512 512" width="512" height="512">
  <defs>
    <radialGradient id="bg" cx="50%" cy="50%" r="50%">
      <stop offset="0%" stop-color="#9B59D0"/>
      <stop offset="100%" stop-color="#5E1F9E"/>
    </radialGradient>
    <radialGradient id="glow" cx="50%" cy="50%" r="50%">
      <stop offset="0%" stop-color="#fff" stop-opacity="0.3"/>
      <stop offset="100%" stop-color="#fff" stop-opacity="0"/>
    </radialGradient>
    <radialGradient id="starGlow" cx="50%" cy="50%" r="50%">
      <stop offset="0%" stop-color="#FFD700" stop-opacity="0.4"/>
      <stop offset="100%" stop-color="#FFD700" stop-opacity="0"/>
    </radialGradient>
  </defs>
  <!-- Background -->
  <rect width="512" height="512" rx="100" fill="url(#bg)"/>
  <!-- Outer glow -->
  <circle cx="256" cy="256" r="180" fill="url(#glow)"/>
  <!-- Star glow -->
  <circle cx="256" cy="256" r="120" fill="url(#starGlow)"/>
  <!-- Main star -->
  <path d="M256 80 L288 208 L416 208 L312 288 L346 416 L256 340 L166 416 L200 288 L96 208 L224 208 Z" fill="#FFD700" opacity="0.9"/>
  <!-- Inner star highlight -->
  <path d="M256 120 L278 210 L370 210 L296 268 L320 358 L256 308 L192 358 L216 268 L142 210 L234 210 Z" fill="#FFEC80" opacity="0.3"/>
  <!-- Large sparkles -->
  <circle cx="100" cy="100" r="8" fill="#fff" opacity="0.8"/>
  <circle cx="420" cy="110" r="6" fill="#fff" opacity="0.6"/>
  <circle cx="110" cy="410" r="6" fill="#fff" opacity="0.7"/>
  <circle cx="400" cy="400" r="8" fill="#fff" opacity="0.5"/>
  <!-- Medium sparkles -->
  <circle cx="180" cy="70" r="4" fill="#fff" opacity="0.5"/>
  <circle cx="350" cy="60" r="3" fill="#fff" opacity="0.4"/>
  <circle cx="450" cy="250" r="4" fill="#fff" opacity="0.6"/>
  <circle cx="60" cy="280" r="3" fill="#fff" opacity="0.5"/>
  <circle cx="330" cy="450" r="4" fill="#fff" opacity="0.4"/>
  <circle cx="170" cy="440" r="3" fill="#fff" opacity="0.6"/>
  <!-- Small sparkles -->
  <circle cx="140" cy="160" r="2" fill="#fff" opacity="0.4"/>
  <circle cx="380" cy="170" r="2" fill="#fff" opacity="0.3"/>
  <circle cx="70" cy="350" r="2" fill="#fff" opacity="0.5"/>
  <circle cx="440" cy="340" r="2" fill="#fff" opacity="0.4"/>
  <circle cx="256" cy="50" r="2" fill="#fff" opacity="0.6"/>
  <circle cx="256" cy="462" r="2" fill="#fff" opacity="0.3"/>
  <!-- Cross sparkle accents -->
  <g opacity="0.7">
    <line x1="96" y1="100" x2="104" y2="100" stroke="#fff" stroke-width="2"/>
    <line x1="100" y1="96" x2="100" y2="104" stroke="#fff" stroke-width="2"/>
  </g>
  <g opacity="0.5">
    <line x1="416" y1="110" x2="424" y2="110" stroke="#fff" stroke-width="2"/>
    <line x1="420" y1="106" x2="420" y2="114" stroke="#fff" stroke-width="2"/>
  </g>
  <g opacity="0.6">
    <line x1="396" y1="400" x2="404" y2="400" stroke="#fff" stroke-width="2"/>
    <line x1="400" y1="396" x2="400" y2="404" stroke="#fff" stroke-width="2"/>
  </g>
</svg>
